<svg width="62" height="19" viewBox="0 0 62 19" fill="none" xmlns="http://www.w3.org/2000/svg">
<path fill-rule="evenodd" clip-rule="evenodd" d="M8.29657 0.736214C7.50373 0.264282 6.57874 0.0188771 5.52161 0H0V18.8584H6.17288C7.13562 18.8584 8.01341 18.6225 8.80626 18.1505C9.59911 17.6597 10.2315 17.0084 10.7034 16.1967C11.1754 15.385 11.4113 14.4978 11.4113 13.535C11.4113 12.6289 11.2131 11.7983 10.8167 11.0432C10.4391 10.2881 9.91058 9.65574 9.231 9.14605C9.70293 8.63636 10.071 8.06061 10.3353 7.41878C10.6185 6.75807 10.7601 6.05961 10.7601 5.3234C10.7601 4.3229 10.543 3.42623 10.1088 2.63338C9.69349 1.84054 9.08942 1.20815 8.29657 0.736214ZM2.4918 8.15499V2.54843H5.52161C6.31446 2.54843 6.96572 2.81272 7.47541 3.34128C8.00397 3.86985 8.26826 4.53055 8.26826 5.3234C8.26826 6.11624 8.00397 6.78639 7.47541 7.33383C6.94684 7.88127 6.29558 8.15499 5.52161 8.15499H2.4918ZM2.4918 16.31V10.7034H6.17288C6.94684 10.7034 7.59811 10.9771 8.12668 11.5246C8.65524 12.072 8.91952 12.7422 8.91952 13.535C8.91952 14.309 8.65524 14.9697 8.12668 15.5171C7.59811 16.0457 6.94684 16.31 6.17288 16.31H2.4918ZM18.0985 18.4337C18.9669 18.8112 19.8824 19 20.8452 19C21.8268 19 22.7612 18.8112 23.6485 18.4337C24.5357 18.0561 25.3097 17.537 25.9704 16.8763C26.6311 16.2156 27.1408 15.4511 27.4994 14.5827C27.877 13.7144 28.0657 12.7988 28.0657 11.8361C28.0657 10.8544 27.877 9.92002 27.4994 9.03279C27.1408 8.14555 26.6311 7.37158 25.9704 6.71088C25.3097 6.05017 24.5357 5.54049 23.6485 5.18182C22.7612 4.80427 21.8268 4.6155 20.8452 4.6155C19.8824 4.6155 18.9669 4.80427 18.0985 5.18182C17.2302 5.54049 16.4656 6.05017 15.8049 6.71088C15.1442 7.37158 14.6251 8.14555 14.2476 9.03279C13.87 9.92002 13.6812 10.8544 13.6812 11.8361C13.6812 12.7988 13.87 13.7144 14.2476 14.5827C14.6251 15.4511 15.1442 16.2156 15.8049 16.8763C16.4656 17.537 17.2302 18.0561 18.0985 18.4337ZM17.5888 8.49478C18.495 7.58867 19.5804 7.13562 20.8452 7.13562C21.487 7.13562 22.0911 7.25832 22.6574 7.50373C23.2426 7.73025 23.7428 8.06061 24.1581 8.49478C24.5734 8.92896 24.9038 9.43865 25.1492 10.0238C25.3946 10.609 25.5173 11.2131 25.5173 11.8361C25.5173 12.459 25.3946 13.0537 25.1492 13.62C24.9038 14.1863 24.5734 14.6865 24.1581 15.1207C23.7428 15.5549 23.2426 15.8947 22.6574 16.1401C22.0722 16.3855 21.4681 16.5082 20.8452 16.5082C20.2222 16.5082 19.6276 16.3855 19.0613 16.1401C18.5138 15.8947 18.023 15.5549 17.5888 15.1207C17.1547 14.6865 16.8149 14.1863 16.5695 13.62C16.3241 13.0537 16.2014 12.459 16.2014 11.8361C16.2014 11.2131 16.3241 10.609 16.5695 10.0238C16.8149 9.43865 17.1547 8.92896 17.5888 8.49478ZM36.9388 19C35.9761 19 35.0605 18.8112 34.1922 18.4337C33.3238 18.0561 32.5593 17.537 31.8986 16.8763C31.2379 16.2156 30.7187 15.4511 30.3412 14.5827C29.9636 13.7144 29.7749 12.7988 29.7749 11.8361C29.7749 10.8544 29.9636 9.92002 30.3412 9.03279C30.7187 8.14555 31.2379 7.37158 31.8986 6.71088C32.5593 6.05017 33.3238 5.54049 34.1922 5.18182C35.0605 4.80427 35.9761 4.6155 36.9388 4.6155C37.9204 4.6155 38.8549 4.80427 39.7421 5.18182C40.6293 5.54049 41.4033 6.05017 42.064 6.71088C42.7247 7.37158 43.2344 8.14555 43.5931 9.03279C43.9706 9.92002 44.1594 10.8544 44.1594 11.8361C44.1594 12.7988 43.9706 13.7144 43.5931 14.5827C43.2344 15.4511 42.7247 16.2156 42.064 16.8763C41.4033 17.537 40.6293 18.0561 39.7421 18.4337C38.8549 18.8112 37.9204 19 36.9388 19ZM36.9388 7.13562C35.674 7.13562 34.5886 7.58867 33.6825 8.49478C33.2483 8.92896 32.9085 9.43865 32.6631 10.0238C32.4177 10.609 32.295 11.2131 32.295 11.8361C32.295 12.459 32.4177 13.0537 32.6631 13.62C32.9085 14.1863 33.2483 14.6865 33.6825 15.1207C34.1167 15.5549 34.6075 15.8947 35.1549 16.1401C35.7212 16.3855 36.3159 16.5082 36.9388 16.5082C37.5618 16.5082 38.1658 16.3855 38.751 16.1401C39.3362 15.8947 39.8365 15.5549 40.2518 15.1207C40.6671 14.6865 40.9974 14.1863 41.2428 13.62C41.4882 13.0537 41.6109 12.459 41.6109 11.8361C41.6109 11.2131 41.4882 10.609 41.2428 10.0238C40.9974 9.43865 40.6671 8.92896 40.2518 8.49478C39.8365 8.06061 39.3362 7.73025 38.751 7.50373C38.1847 7.25832 37.5806 7.13562 36.9388 7.13562ZM49.1965 13.62L53.5005 18.8584H56.7852L50.046 10.7601L56.7569 4.53055H53.0475L49.1965 8.15499V0.0283154H46.7047V18.8584H49.1965V13.62ZM59.7871 2.6617C59.4285 2.6617 59.117 2.539 58.8527 2.29359C58.6073 2.02931 58.4846 1.71783 58.4846 1.35916C58.4846 1.0005 58.6073 0.69846 58.8527 0.453054C59.117 0.188772 59.4285 0.0566312 59.7871 0.0566312C60.1458 0.0566312 60.4478 0.188772 60.6932 0.453054C60.9575 0.69846 61.0897 1.0005 61.0897 1.35916C61.0897 1.71783 60.9575 2.02931 60.6932 2.29359C60.4478 2.539 60.1458 2.6617 59.7871 2.6617ZM58.6262 18.8584V4.70045H61.0047V18.8584H58.6262ZM38.0099 11.0333C38.2718 10.7713 38.4338 10.4094 38.4338 10.0097C38.4338 9.21 37.7855 8.56172 36.9858 8.56172C36.1861 8.56172 35.5378 9.21 35.5378 10.0097C35.5378 10.4404 35.7259 10.8271 36.0243 11.0924L35.5378 14.6754H38.4338L38.0099 11.0333Z" fill="#0065FC"/>
</svg>
